<?xml version="1.0" standalone="no"?>
<!DOCTYPE svg PUBLIC "-//W3C//DTD SVG 20010904//EN"
 "http://www.w3.org/TR/2001/REC-SVG-20010904/DTD/svg10.dtd">
<svg version="1.0" xmlns="http://www.w3.org/2000/svg"
 width="512.000000pt" height="512.000000pt" viewBox="0 0 512.000000 512.000000"
 preserveAspectRatio="xMidYMid meet">
<metadata>
Created by potrace 1.11, written by Peter Selinger 2001-2013
</metadata>
<g transform="translate(0.000000,512.000000) scale(0.100000,-0.100000)"
fill="#000000" stroke="none">
<path d="M1810 4616 c-115 -30 -236 -129 -309 -250 -65 -109 -122 -287 -138
-435 -13 -116 -5 -289 18 -389 6 -26 13 -57 15 -70 3 -13 16 -53 29 -90 71
-189 178 -322 315 -390 48 -23 67 -27 150 -27 79 0 103 4 145 24 238 113 395
441 389 816 -3 238 -60 437 -172 603 -112 164 -290 248 -442 208z"/>
<path d="M3044 4614 c-188 -55 -351 -267 -409 -532 -34 -158 -41 -366 -16
-502 18 -98 21 -109 47 -182 71 -197 177 -334 309 -399 222 -109 465 17 598
312 36 79 75 213 83 282 2 23 7 52 9 65 6 26 7 209 1 267 -26 257 -143 505
-289 613 -28 20 -61 42 -73 48 -72 38 -186 50 -260 28z"/>
<path d="M885 3402 c-123 -21 -218 -120 -255 -263 -25 -94 -22 -270 5 -374 45
-173 131 -330 250 -450 78 -80 102 -99 175 -139 181 -99 376 -50 461 115 60
118 72 316 29 481 -88 337 -358 622 -598 632 -26 1 -56 0 -67 -2z"/>
<path d="M4015 3395 c-93 -22 -226 -105 -300 -187 -123 -137 -194 -273 -240
-458 -31 -126 -29 -291 4 -393 55 -167 200 -258 366 -226 46 9 165 63 201 91
34 27 160 155 174 177 8 13 22 33 31 45 20 26 82 147 104 201 35 87 56 193 60
300 12 316 -157 507 -400 450z"/>
<path d="M2567 2614 c-1 -1 -39 -5 -84 -8 -141 -12 -274 -59 -375 -134 -126
-93 -331 -340 -522 -632 -202 -306 -281 -446 -321 -563 -21 -65 -25 -90 -21
-160 6 -117 35 -188 105 -257 96 -96 192 -130 381 -135 177 -5 228 10 478 139
57 30 118 48 207 64 44 7 271 7 335 -1 87 -10 157 -35 267 -93 161 -87 226
-105 373 -109 212 -5 332 34 433 140 65 68 95 143 101 252 7 145 -70 309 -327
693 -85 128 -214 309 -227 320 -3 3 -19 23 -35 45 -17 22 -32 42 -35 45 -3 3
-34 39 -69 80 -171 199 -280 265 -486 299 -65 10 -173 20 -178 15z"/>
</g>
</svg>
